<?xml version="1.0" encoding="utf-8"?>
<!-- Generator: Adobe Illustrator 23.0.1, SVG Export Plug-In . SVG Version: 6.00 Build 0)  -->
<!DOCTYPE svg PUBLIC "-//W3C//DTD SVG 1.1//EN" "http://www.w3.org/Graphics/SVG/1.1/DTD/svg11.dtd" [
	<!ENTITY ns_extend "http://ns.adobe.com/Extensibility/1.0/">
	<!ENTITY ns_ai "http://ns.adobe.com/AdobeIllustrator/10.0/">
	<!ENTITY ns_graphs "http://ns.adobe.com/Graphs/1.0/">
	<!ENTITY ns_vars "http://ns.adobe.com/Variables/1.0/">
	<!ENTITY ns_imrep "http://ns.adobe.com/ImageReplacement/1.0/">
	<!ENTITY ns_sfw "http://ns.adobe.com/SaveForWeb/1.0/">
	<!ENTITY ns_custom "http://ns.adobe.com/GenericCustomNamespace/1.0/">
	<!ENTITY ns_adobe_xpath "http://ns.adobe.com/XPath/1.0/">
]>
<svg version="1.1" id="Layer_1" xmlns:x="&ns_extend;" xmlns:i="&ns_ai;" xmlns:graph="&ns_graphs;"
	 xmlns="http://www.w3.org/2000/svg" xmlns:xlink="http://www.w3.org/1999/xlink" x="0px" y="0px" viewBox="0 0 98 80"
	 enable-background="new 0 0 98 80" xml:space="preserve">
<metadata>
	<sfw  xmlns="&ns_sfw;">
		<slices></slices>
		<sliceSourceBounds  bottomLeftOrigin="true" height="59.86" width="78.44" x="258.38" y="-450.69"></sliceSourceBounds>
	</sfw>
</metadata>
<g>
	<path fill="#DBB181" d="M53.81,26.73c3.08-0.72,6.16-1.44,9.25-2.16c0.49-0.12,1.02-0.23,1.51-0.09c0.38,0.12,0.68,0.38,0.97,0.64
		C74.5,33,81.21,43.08,84.79,54.04c0.44,1.35,1.19,3.8-0.05,4.93c-1.37,1.25-3.56,1.28-5.25,1.92c-0.45,0.16-0.92,0.34-1.4,0.35
		c-0.11,0-0.22,0-0.33-0.02c-1.31-0.2-1.83-1.67-2.09-2.89c-0.89-4.17-2.76-7.99-5.15-11.6c-0.36-0.56-0.75-1.11-1.14-1.66
		c-2.43-3.4-5.21-6.57-8-9.71C60.65,34.54,54.55,26.79,53.81,26.73z"/>
	<path fill="#F0D0AD" d="M84.58,57.98c0.09-0.33-0.19-0.66-0.5-0.73s-0.62,0.06-0.91,0.2c-1.25,0.57-2.44,1.3-3.55,2.15
		c0.26,0.4,0.82,0.2,1.24,0.03c1.18-0.46,2.6-0.37,3.5-1.32C84.46,58.22,84.55,58.11,84.58,57.98z"/>
	<path fill="#DBB181" d="M36,34.98c0.08-0.34,0.46-0.51,0.8-0.65c1.2-0.47,2.43-0.95,3.74-1c3.55-0.1,6.22,2.93,8.23,5.7
		c4.51,6.23,8.79,12.78,10.86,20.04c0.56,1.99,1.01,4.37-0.91,5.8c-0.83,0.62-1.86,0.98-2.88,1.3c-0.43,0.14-0.92,0.26-1.39,0.28
		c-0.54,0.02-1.05-0.08-1.42-0.45c-0.43-0.44-0.47-1.11-0.51-1.7c-0.22-3.33-1.54-6.21-3.46-8.95c-0.13-0.19-0.27-0.37-0.4-0.55
		c-2.43-3.3-4.39-7.02-6.67-10.44c-1.9-2.85-3.81-5.7-5.72-8.55C36.1,35.55,35.93,35.27,36,34.98z"/>
	<path fill="#F0D0AD" d="M59.16,63.38c-0.02-0.04-0.05-0.06-0.08-0.09c-0.29-0.2-0.7-0.18-1.03-0.05c-0.33,0.13-0.61,0.34-0.91,0.52
		c-0.87,0.51-1.98,0.74-2.57,1.52c-0.07,0.09-0.14,0.21-0.11,0.32c0.04,0.19,0.29,0.27,0.5,0.28c0.52,0.02,1.02-0.14,1.51-0.3
		c0.58-0.19,1.17-0.39,1.67-0.71c0.5-0.33,0.92-0.81,1.03-1.37C59.17,63.46,59.18,63.42,59.16,63.38z"/>
	<path fill="#DBB181" d="M21.74,43.6c1.25-0.52,2.5-1.05,3.75-1.57c0.29-0.12,0.59-0.24,0.91-0.22c0.27,0.02,0.52,0.14,0.75,0.28
		c0.99,0.59,1.82,1.43,2.37,2.41c0.42,0.74,0.67,1.54,1.05,2.3c0.57,1.11,1.42,2.08,2.06,3.16c0.84,1.44,1.29,3.05,2,4.56
		c0.54,1.13,1.24,2.2,1.84,3.31c0.25,0.45,0.48,0.9,0.69,1.36c0.22,0.48,0.44,0.96,0.63,1.44c0.93,2.32,1.51,4.75,1.71,7.21
		c0.06,0.77,0.06,1.6-0.42,2.21c-0.27,0.33-0.66,0.56-1.05,0.76c-1.37,0.66-2.95,0.97-4.5,0.87l-0.08-0.01
		c-0.25-0.03-0.52-0.07-0.68-0.25c-0.19-0.2-0.2-0.5-0.2-0.77c-0.01-2.72-0.65-5.42-1.29-8.07c-0.24-1-0.48-1.99-0.78-2.97
		c-0.28-0.95-0.62-1.88-1.04-2.78c-0.48-1.01-1.08-1.97-1.68-2.92c-1.54-2.48-3.1-4.96-4.64-7.44
		C22.57,45.55,21.99,44.62,21.74,43.6z"/>
	<path fill="#F0D0AD" d="M33.5,71.07c0.05,0.12,0.19,0.19,0.32,0.23c0.73,0.23,1.54,0.23,2.26,0c0.21-0.07,0.41-0.15,0.62-0.24
		c0.59-0.25,1.17-0.51,1.74-0.78C38.7,70.17,39,70,39.01,69.73c0.01-0.22-0.19-0.42-0.43-0.48c-0.23-0.06-0.48-0.02-0.71,0.04
		c-1.29,0.33-2.4,1.19-3.74,1.33c-0.16,0.02-0.32,0.02-0.45,0.09C33.55,70.78,33.45,70.94,33.5,71.07z"/>
	<path fill="#A96B42" d="M9.61,44.21l0.11-1.32c0.07-0.84,0.15-1.65,0.2-2.24c0.05-0.52,0.09-0.88,0.09-0.91
		c0.36-2.07,1.77-3.83,3.24-5.4l0-0.01c0.29-0.3,0.58-0.6,0.87-0.89c0.19-0.2,0.39-0.39,0.59-0.57c0.36-0.35,0.71-0.7,1.08-1.03
		c0.35-0.32,0.7-0.64,1.06-0.96c0.05-0.06,0.13-0.12,0.21-0.18c0.32-0.28,0.65-0.56,0.98-0.84c0.38-0.32,0.78-0.63,1.17-0.95
		c0.75-0.6,1.52-1.17,2.3-1.72c0.04-0.03,0.07-0.05,0.1-0.07c0.41-0.29,0.83-0.58,1.25-0.85c0.33-0.22,0.65-0.44,0.99-0.65
		c0.38-0.25,0.77-0.49,1.16-0.73c0.32-0.2,0.65-0.4,0.97-0.6c0.24-0.14,0.49-0.28,0.73-0.43c0.3-0.18,0.62-0.35,0.92-0.53
		c0.21-0.12,0.42-0.23,0.64-0.35c0.36-0.21,0.74-0.41,1.11-0.6c0.44-0.24,0.9-0.47,1.36-0.7c0.38-0.2,0.77-0.38,1.16-0.57
		c0.64-0.31,1.28-0.61,1.93-0.89c0.47-0.22,0.94-0.43,1.42-0.63c0.55-0.24,1.11-0.47,1.66-0.7c0.59-0.24,1.17-0.47,1.77-0.7
		c0.02-0.01,0.05-0.01,0.07-0.02c0.4-0.15,0.78-0.3,1.18-0.45c0.74-0.27,1.49-0.54,2.23-0.81c0.02-0.01,0.05-0.01,0.07-0.02
		c0.77-0.26,1.54-0.52,2.32-0.77c0.51-0.17,1.04-0.33,1.56-0.5c1.05-0.32,2.09-0.63,3.13-0.92c2.04-0.58,4.08-1.11,6.14-1.59
		c0.18-0.04,0.34-0.09,0.52-0.13c0.94-0.23,1.89-0.44,2.83-0.65l0.01,0c0.26-0.06,0.54-0.12,0.8-0.17c0.27-0.05,0.55-0.11,0.82-0.16
		c0.27-0.04,0.55-0.09,0.82-0.11c0.27-0.03,0.54-0.06,0.82-0.07c0.18-0.01,0.37-0.02,0.55-0.01c0.17,0,0.36,0,0.54,0.03l0.1,0.01
		c0.32,0.03,0.65,0.07,0.96,0.14c0.15,0.03,0.31,0.07,0.47,0.12c0.15,0.04,0.3,0.08,0.45,0.14c0.15,0.05,0.3,0.1,0.45,0.16
		c0.15,0.05,0.3,0.11,0.45,0.18c0.3,0.12,0.58,0.27,0.87,0.42c1.14,0.6,2.21,1.36,3.24,2.11c0.38,0.28,0.76,0.56,1.14,0.86
		c0.38,0.28,0.76,0.57,1.14,0.86c0.76,0.57,1.5,1.16,2.24,1.75c2.7,2.19,5.3,4.51,7.58,7.08c0.28,0.31,0.55,0.63,0.82,0.95
		c0.27,0.32,0.54,0.65,0.8,0.98c0.52,0.66,1.02,1.34,1.49,2.03c0.47,0.68,0.91,1.38,1.31,2.11c0.4,0.7,0.83,1.45,1.11,2.21
		c0.03,0.08,0.05,0.2,0.08,0.35c0.08,0.69,0.06,2.05-0.02,3.53c-0.02,0.56-0.06,1.14-0.1,1.7c-0.01,0.25-0.03,0.51-0.05,0.74
		l-0.01,0.1c-0.13,1.6-0.3,2.96-0.45,3.33c-0.03,0.11-0.08,0.22-0.13,0.32c-0.01,0.03-0.03,0.06-0.05,0.09
		c-0.08,0.15-0.18,0.29-0.3,0.42c-0.18,0.18-0.42,0.29-0.65,0.41c-0.3,0.16-0.6,0.31-0.92,0.48c-0.98,0.55-1.93,1.14-2.84,1.77
		c-0.03-0.01-0.04-0.02-0.07-0.02c-0.04-0.02-0.06-0.03-0.1-0.04c-0.02-0.01-0.05-0.01-0.07-0.02l-0.01,0
		c-0.41-0.11-0.95-0.02-1.33,0c-0.03,0-0.05,0.01-0.08,0c-0.52,0.03-1.06,0.11-1.56,0.2c-0.39,0.07-0.76,0.17-1.15,0.29
		c-0.6,0.17-1.18,0.38-1.75,0.64c-0.06,0.02-0.11,0.05-0.17,0.07c-0.73,0.35-1.43,0.77-2.14,1.19c-0.35,0.21-0.71,0.43-1.07,0.64
		c-0.01,0-0.02,0.02-0.03,0.03c-0.03,0.02-0.06,0.03-0.09,0.05c-0.06,0.03-0.13,0.08-0.19,0.12c-0.74,0.44-1.49,0.88-2.25,1.29
		c-0.46,0.26-0.95,0.51-1.43,0.77c-0.34,0.18-0.69,0.34-1.05,0.51c-0.21,0.1-0.42,0.2-0.64,0.3c-0.17,0.07-0.33,0.15-0.51,0.23
		c-0.26,0.1-0.52,0.21-0.79,0.31c-0.22,0.09-0.44,0.17-0.65,0.24c-0.4,0.15-0.81,0.28-1.22,0.39c-0.24,0.07-0.47,0.12-0.71,0.18
		c-0.49,0.12-1,0.22-1.49,0.28c-0.5,0.07-1,0.12-1.5,0.13c-0.14,0.01-0.3,0-0.44,0c-0.15,0-0.3-0.01-0.44-0.01
		c-0.28,0-0.56-0.02-0.84-0.05c-0.08-0.01-0.16-0.02-0.24-0.03l-0.03,0c-0.05,0-0.09-0.02-0.14-0.02c-0.5-0.06-1.01-0.15-1.52-0.24
		c-0.87-0.14-1.73-0.27-2.6-0.23c-0.15,0.02-0.28,0.02-0.43,0.04c-0.2,0.03-0.41,0.07-0.62,0.13c-1.15,0.3-2.17,1.01-2.44,2.07
		c-0.08,0.02-0.17,0.03-0.24,0.06c-0.02,0-0.03,0-0.04,0.01c-0.06,0.01-0.13,0.03-0.19,0.04c-1.01,0.19-2.01,0.43-2.98,0.72
		c-1.98,0.56-3.9,1.27-5.75,2.13c-0.88,0.41-1.76,0.85-2.72,0.97c-0.22,0.04-0.45,0.04-0.68,0.04l-0.03,0
		c-0.02,0.01-0.04,0.01-0.06,0c-0.3,0-0.6-0.01-0.91-0.02c-0.13-0.01-0.27-0.01-0.4-0.02c-0.54,0.01-1.07,0.06-1.61,0.17
		c-0.01,0-0.02,0.01-0.03,0.01c-0.66,0.13-1.3,0.31-1.93,0.54c-0.47,0.17-0.95,0.49-1.43,0.81c-0.07,0.05-0.15,0.09-0.23,0.13
		c-0.09,0.06-0.19,0.12-0.28,0.17c-0.38,0.22-0.78,0.37-1.18,0.39c-0.6,0.03-1.15-0.43-1.42-0.93c-0.28-0.51-0.36-1.1-0.51-1.65
		c-0.49-1.71-1.89-2.9-3.01-4.27c-1.29-1.62-2.67-3.18-4.32-4.49c-1.58-1.27-3.44-2.31-5.43-2.86c-1.02-0.27-2.06-0.42-3.12-0.39
		c-0.87,0.01-1.98,0.03-2.39-0.7c-0.04-0.06-0.07-0.12-0.08-0.18c-0.03-0.07-0.05-0.13-0.06-0.2c-0.01-0.07-0.02-0.17-0.03-0.24
		l0-0.01C9.39,46.83,9.49,45.62,9.61,44.21z"/>
	<path fill="#D26428" d="M9.61,44.21l0.11-1.32c0.07-0.84,0.15-1.65,0.2-2.24c0.05-0.52,0.09-0.88,0.09-0.91
		c0.36-2.07,1.77-3.83,3.24-5.4l0-0.01c0.29-0.3,0.58-0.6,0.87-0.89c0.19-0.2,0.39-0.39,0.59-0.57c0.36-0.35,0.71-0.7,1.08-1.03
		c0.35-0.32,0.7-0.64,1.06-0.96c0.05-0.06,0.13-0.12,0.21-0.18c0.32-0.28,0.65-0.56,0.98-0.84c0.38-0.32,0.78-0.63,1.17-0.95
		c0.75-0.6,1.52-1.17,2.3-1.72c0.04-0.03,0.07-0.05,0.1-0.07c0.41-0.29,0.83-0.58,1.25-0.85c0.33-0.22,0.65-0.44,0.99-0.65
		c0.38-0.25,0.77-0.49,1.16-0.73c0.32-0.2,0.65-0.4,0.97-0.6c0.24-0.14,0.49-0.28,0.73-0.43c0.3-0.18,0.62-0.35,0.92-0.53
		c0.21-0.12,0.42-0.23,0.64-0.35c0.36-0.21,0.74-0.41,1.11-0.6c0.44-0.24,0.9-0.47,1.36-0.7c0.38-0.2,0.77-0.38,1.16-0.57
		c0.64-0.31,1.28-0.61,1.93-0.89c0.47-0.22,0.94-0.43,1.42-0.63c0.55-0.24,1.11-0.47,1.66-0.7c0.59-0.24,1.17-0.47,1.77-0.7
		c0.02-0.01,0.05-0.01,0.07-0.02c0.4-0.15,0.78-0.3,1.18-0.45c0.74-0.27,1.49-0.54,2.23-0.81c0.02-0.01,0.05-0.01,0.07-0.02
		c0.77-0.26,1.54-0.52,2.32-0.77c0.51-0.17,1.04-0.33,1.56-0.5c1.05-0.32,2.09-0.63,3.13-0.92c2.04-0.57,4.09-1.11,6.14-1.59
		c0.18-0.04,0.34-0.09,0.52-0.13c0.94-0.23,1.89-0.44,2.83-0.65l0.01,0c0.26-0.06,0.54-0.12,0.8-0.17c0.27-0.05,0.55-0.11,0.82-0.16
		c0.27-0.04,0.55-0.09,0.82-0.11c0.27-0.03,0.54-0.06,0.82-0.07c0.18-0.01,0.37-0.02,0.55-0.01c0.17,0,0.36,0,0.54,0.03
		c0.04-0.01,0.07,0,0.11,0c0.32,0.03,0.64,0.08,0.95,0.15c0.15,0.03,0.31,0.07,0.47,0.12c0.15,0.04,0.3,0.08,0.45,0.14
		c0.15,0.05,0.3,0.1,0.45,0.16c0.15,0.05,0.3,0.11,0.45,0.18c0.3,0.12,0.58,0.27,0.87,0.42c1.14,0.61,2.21,1.37,3.24,2.12
		c0.38,0.27,0.76,0.56,1.14,0.85c0.38,0.28,0.76,0.57,1.14,0.86c0.76,0.57,1.5,1.16,2.24,1.75c2.7,2.19,5.3,4.51,7.58,7.08
		c0.28,0.31,0.55,0.63,0.82,0.95c0.27,0.32,0.54,0.65,0.8,0.98c0.52,0.66,1.02,1.34,1.49,2.03c0.46,0.68,0.9,1.38,1.31,2.11
		c0.4,0.7,0.83,1.45,1.11,2.21c0.03,0.08,0.05,0.2,0.08,0.35c0.09,0.69,0.08,2.04,0,3.54c-0.03,0.55-0.07,1.14-0.11,1.7l-0.07,0.84
		c-0.13,1.38-0.29,2.62-0.48,3.29c-0.03,0.15-0.07,0.27-0.11,0.37c-0.01,0.03-0.03,0.06-0.05,0.09c-0.08,0.15-0.18,0.29-0.3,0.42
		c-0.18,0.18-0.42,0.29-0.65,0.41c-0.3,0.16-0.6,0.31-0.92,0.48c-1.12-0.61-1.95-1.58-2.75-2.54c-1.23-1.48-2.44-2.98-3.35-4.64
		c-0.91-1.65-1.53-3.44-2.65-4.97c-1.83-2.49-4.81-4.04-6.85-6.38c-1.14-1.33-1.96-2.89-3.21-4.13c-0.37-0.37-0.77-0.71-1.21-1.01
		c-0.02-0.01-0.03-0.01-0.04-0.02c-1.33-0.92-2.95-1.5-4.59-1.65c-0.38-0.03-0.76-0.05-1.14-0.04c-0.07-0.02-0.12-0.01-0.18-0.02
		c-0.12,0-0.24,0-0.36,0.01c-0.03-0.01-0.07-0.01-0.1,0c-0.49,0.02-0.98,0.06-1.46,0.12c-0.05,0.01-0.09,0.01-0.14,0.03
		c-6.82,0.95-12.54,6.28-19.06,9.4c-0.27,0.13-0.54,0.26-0.82,0.37c-0.17,0.08-0.36,0.15-0.53,0.23c-0.06,0.02-0.13,0.05-0.19,0.07
		c-0.31,0.14-0.63,0.25-0.94,0.36c-0.28,0.11-0.56,0.2-0.84,0.29c-2.77,0.88-5.72,1.35-8.33,2.59c-0.25,0.11-0.49,0.24-0.73,0.37
		c-0.31,0.17-0.62,0.34-0.91,0.54c-0.82,0.5-1.61,1.07-2.37,1.67c-0.38,0.29-0.75,0.6-1.12,0.89c-0.37,0.29-0.72,0.59-1.07,0.88
		c-0.43,0.36-0.86,0.71-1.29,1.07c-2.94,2.45-5.83,4.98-8.24,7.89c-0.13,0.16-0.26,0.31-0.45,0.39c-0.34,0.12-0.6-0.03-0.77-0.33
		l0-0.01C9.39,46.75,9.49,45.58,9.61,44.21z"/>
	<g>
		<g>
			<g>
				<path fill="#95562B" d="M9.42,47.14c0.17,0.24,0.42,0.37,0.73,0.25c0.18-0.07,0.32-0.23,0.44-0.39
					c2.83-3.42,6.09-6.28,9.54-9.13c1.87-1.53,4-3.3,6.22-4.35c2.61-1.24,5.55-1.7,8.32-2.59c8.1-2.58,13.94-9.27,22.52-10.75
					c2.25-0.39,4.95,0.1,7,1.12c1.18,0.59,2.2,1.43,3.21,2.27c3.15,2.61,6.65,4.97,9.34,8.04c1.58,1.8,2.8,3.85,4.58,5.42
					c2.15,1.88,3.95,4.22,5.67,6.51c0.05,0.06,0.09,0.13,0.14,0.19c-0.05,0.14-0.11,0.28-0.18,0.41c-0.08,0.15-0.18,0.3-0.31,0.42
					c-0.18,0.18-0.42,0.29-0.64,0.41c-0.31,0.16-0.61,0.31-0.92,0.48c-0.98,0.55-1.93,1.14-2.84,1.77
					c-0.03-0.01-0.04-0.02-0.07-0.02c-3.91-7.22-9.6-13.29-15.24-19.28c-0.83-0.88-1.66-1.76-2.65-2.46c-1.9-1.32-3.87-1.88-6-0.76
					c-1.4,0.74-2.46,2.13-2.49,3.64c-0.02,1.05,0.45,2.07,1.02,2.98c1.48,2.35,3.7,4.22,5.76,6.18c2.92,2.78,5.58,5.81,7.94,9.03
					c0.74,1,1.46,2.05,1.79,3.22c0.06,0.21,0.1,0.41,0.12,0.6c-0.73,0.44-1.49,0.88-2.25,1.3c-0.47,0.26-0.94,0.51-1.42,0.76
					c-0.35,0.17-0.7,0.35-1.05,0.52c-0.22,0.09-0.43,0.2-0.64,0.29c-0.17,0.07-0.33,0.15-0.51,0.23c-0.26,0.11-0.52,0.22-0.79,0.31
					c-0.22,0.09-0.43,0.17-0.65,0.24c-0.4,0.15-0.82,0.28-1.23,0.39c-0.24,0.07-0.47,0.12-0.71,0.18c-0.49,0.12-0.99,0.22-1.49,0.28
					c-0.49,0.07-0.99,0.11-1.5,0.13c-0.21,0.01-0.42,0.01-0.63,0.01c-0.09,0-0.17-0.01-0.26-0.01c-3.03-0.34-4.11-5.51-5.65-7.55
					c-0.51-0.68-1.11-1.3-1.67-1.95c-1.34-1.6-2.35-3.47-3.96-4.88c-1.81-1.58-3.79-3-5.54-4.68c-0.35-0.33-0.71-0.69-1.15-0.92
					c-0.82-0.41-1.82-0.32-2.68-0.03c-3.17,1.1-4.56,5.26-2.62,7.89c0.59,0.81,1.41,1.43,2.19,2.08c4.12,3.33,7.94,7,11.37,10.96
					c0.22,0.25,0.44,0.52,0.57,0.81c-1.06,0.2-2.14,0.46-3.17,0.76c-1.98,0.56-3.9,1.27-5.75,2.14c-0.88,0.41-1.76,0.85-2.73,0.97
					c-1.18,0.17-1.67-2.23-2.15-3.11c-0.74-1.39-1.62-2.71-2.55-3.98c-1.86-2.51-4-4.83-6.14-7.15c-0.54-0.59-1.09-1.18-1.73-1.68
					c-0.42-0.32-0.9-0.61-1.29-0.96c-0.42-0.38-0.76-0.84-1.21-1.19c-2.84-2.27-4.71,2.67-3.71,4.6c0.61,1.17,1.8,1.96,2.9,2.8
					c3.47,2.65,6.26,6.07,8.05,9.91c0.35,0.73,0.64,1.51,0.77,2.29c-0.17,0.1-0.34,0.21-0.51,0.3c-0.38,0.21-0.78,0.38-1.17,0.39
					c-0.6,0.03-1.16-0.42-1.42-0.93c-0.28-0.51-0.36-1.09-0.51-1.64c-0.49-1.71-1.89-2.9-3.01-4.28c-1.3-1.62-2.67-3.17-4.32-4.49
					c-1.59-1.28-3.44-2.32-5.43-2.86c-1.02-0.27-2.06-0.42-3.11-0.4c-0.88,0.01-1.98,0.04-2.39-0.69c-0.04-0.06-0.06-0.12-0.08-0.18
					C9.44,47.28,9.43,47.21,9.42,47.14z"/>
			</g>
		</g>
	</g>
	<path fill="#E6D1C9" d="M53.21,40.3c-0.25-0.49-0.85-1.01-1.25-0.64c-0.13-0.66-0.27-1.33-0.4-1.99c-0.04-0.21-0.09-0.44-0.25-0.59
		c-0.24-0.22-0.61-0.16-0.93-0.11c-1.88,0.31-3.85-0.01-5.53-0.89c1.68-3.11,4.31-5.7,7.45-7.34c-0.01,1.1-0.03,2.21-0.04,3.31
		c1.34,0.51,1.99,2.33,1.27,3.57c0.61,0.07,1.22,0.14,1.84,0.21c0.11,0.45,0.22,0.9,0.32,1.35c0.54-0.05,1.07-0.11,1.61-0.16
		c0.13,0.47,0.14,0.98,0.02,1.46c0.35-0.07,0.71-0.14,1.06-0.21c0.53,0.47,1.39,0.51,1.97,0.11c0.12,0.77,0.12,1.56,0.01,2.33
		c0.63-0.26,1.32,0.26,1.64,0.86c0.32,0.6,0.43,1.3,0.8,1.86c0.37,0.57,1.19,0.95,1.73,0.53c0.19,1.39,1.4,2.38,2.55,3.17
		c0.56,0.38,1.18,0.76,1.86,0.7c-2.92,3.15-7.56,4.58-11.74,3.61c1.01,0.22,2.13-0.22,2.73-1.06c-0.7,0.04-1.39,0.08-2.09,0.13
		c0.34-0.34,0.58-0.77,0.69-1.24c-0.35,0.25-0.79,0.38-1.22,0.34c0.09-0.47,0.18-0.94,0.28-1.41c-0.29-0.07-0.58-0.15-0.87-0.22
		c0.12-0.37,0.24-0.73,0.36-1.1c-0.42-0.32-0.83-0.64-1.25-0.97c-0.02-0.49-0.05-0.99-0.07-1.48c-0.52-0.09-1.04-0.19-1.56-0.28
		C54.16,42.83,53.82,41.5,53.21,40.3z"/>
	<path fill="#E6D1C9" d="M33.54,50.19c-0.44-0.04-0.88-0.08-1.32-0.12c0.19-0.46,0.39-0.93,0.58-1.39c-0.29,0-0.59-0.08-0.84-0.22
		c0.03-0.34,0.06-0.67,0.09-1.01c-0.43-0.04-0.86-0.07-1.3-0.11c0-0.44,0.08-0.88,0.26-1.28c-0.34-0.03-0.67-0.06-1.01-0.09
		c0.19-0.81,0.15-1.66-0.11-2.45c-1.32-0.11-2.64-0.23-3.96-0.34c2.43-1.56,4.9-3.05,7.42-4.46c0.56,0.77,0.58,1.9,0.04,2.69
		c0.54-0.18,0.67,0.73,0.47,1.26c0.3,0.03,0.59,0.06,0.89,0.09c-0.03,0.38-0.07,0.77-0.1,1.15c0.33,0.12,0.66,0.25,0.99,0.37
		c-0.11,0.43-0.1,0.88,0.02,1.31c0.38,0.03,0.77,0.06,1.15,0.1c-0.09,0.48,0.46,0.95,0.92,0.78c-0.08,0.48-0.17,0.96-0.25,1.44
		c0.43,0.04,0.87,0.07,1.3,0.11c-0.31,0.45,0.05,1.12,0.57,1.32c0.51,0.2,1.09,0.07,1.63-0.06c0.02,0.49,0.04,0.98,0.06,1.48
		c1.12,0.11,2.22,0.51,3.16,1.14c-0.06,0.4-0.12,0.8-0.18,1.19c0.4,0.19,0.8,0.38,1.2,0.57c0.06,0.47,0.12,0.94,0.18,1.41
		c0.3,0.09,0.59,0.17,0.89,0.26c-2.6,1.82-5.67,2.97-8.82,3.33c0.73-0.43,1.41-0.94,2.02-1.53c-0.82-0.1-1.65-0.15-2.48-0.15
		c0-0.33,0.15-0.65,0.39-0.87c-0.5-0.07-0.52-0.79-0.41-1.28c0.14-0.61,0.29-1.21,0.43-1.82c-0.27-0.03-0.53-0.06-0.8-0.09
		c0.02-0.29,0.05-0.58,0.07-0.86c-0.4-0.05-0.82,0.01-1.19,0.17c-0.1-0.87-1.35-0.91-2.21-0.68C33.27,51.09,33.34,50.61,33.54,50.19
		z"/>
	<path opacity="0.2" fill="#F0D0AD" d="M79.41,57.53c-1.51-4.68-3.06-9.37-5.39-13.7c-2.57-4.77-6.05-9.05-10.21-12.52
		c-0.84-0.7-1.8-1.64-1.51-2.69c0.25-0.91,1.39-1.32,2.31-1.1c0.92,0.23,1.64,0.91,2.3,1.58c0.93,0.94,1.83,1.92,2.71,2.91
		c5.79,6.54,10.68,13.87,14.49,21.72c0.43,0.88,0.85,1.85,0.66,2.81c-0.57-0.83-1.81-0.9-2.75-0.53
		C81.07,56.37,80.3,57.07,79.41,57.53z"/>
	<path opacity="0.2" fill="#F0D0AD" d="M57.08,63.3c0.49-0.67,1.35-1.05,2.17-0.96c0.04-1.49-0.57-2.92-1.17-4.28
		c-1.04-2.37-2.09-4.75-3.48-6.94c-2.13-3.38-4.99-6.22-7.83-9.03c-1.38-1.37-2.81-2.76-4.59-3.51c-0.42-0.18-0.94-0.31-1.31-0.04
		c-0.63,0.45-0.25,1.44,0.21,2.06c2.66,3.65,5.97,6.76,8.9,10.19c2.93,3.43,5.55,7.32,6.4,11.76C56.45,62.94,56.72,63.46,57.08,63.3
		z"/>
	<path opacity="0.2" fill="#F0D0AD" d="M35.93,66.44c-0.02,1.02-0.04,2.05-0.05,3.07c0.79-0.75,2.04-0.97,3.04-0.54
		c0.51-1.39,0.1-2.94-0.39-4.34c-1.22-3.42-2.93-6.64-4.76-9.78c-0.5-0.85-1-1.7-1.58-2.5c-0.68-0.95-1.47-1.83-2.34-2.62
		c0.04,2.09,1.36,3.9,2.4,5.71c0.97,1.67,1.73,3.45,2.5,5.23c0.43,1,0.87,2.01,1.05,3.08C35.97,64.63,35.95,65.54,35.93,66.44z"/>
	<path fill="#EA7B52" d="M9.72,42.9c0.07-0.84,0.15-1.65,0.2-2.24c0.79-0.73,1.58-1.45,2.37-2.18c3.57-3.27,7.24-6.63,11.73-8.45
		c1.67-0.68,3.45-1.14,5.06-1.96c1.79-0.91,3.31-2.24,4.93-3.42c5.86-4.29,12.87-6.67,19.74-8.99c2.74-0.92,5.74-2,8.49-1.11
		c3.87,1.27,7.08,3.97,10.18,6.61c1.87,1.59,3.74,3.18,5.61,4.78c1.49,1.26,2.98,2.54,4.16,4.09c1.94,2.55,3.11,5.9,5.55,7.82
		c0.01,0,0.02,0.01,0.02,0.01c-0.03,0.55-0.07,1.14-0.11,1.7l-0.01-0.01c-1.07-0.51-2.06-1.21-2.81-2.12
		c-0.63-0.75-1.09-1.62-1.59-2.45c-0.95-1.55-2.11-2.98-3.35-4.3c-2.22-2.38-4.73-4.47-7.24-6.56c-2.11-1.77-4.24-3.52-6.36-5.29
		c-1.59-1.33-3.09-2.71-5.13-3.05c-1.91-0.31-3.83,0.36-5.66,1.02c-2.58,0.94-5.15,1.88-7.72,2.81c-0.66,0.24-1.32,0.48-1.99,0.68
		c-0.85,0.26-1.71,0.48-2.55,0.8c-4.42,1.71-7.25,6.3-11.67,8.03c-2.04,0.8-4.29,0.94-6.37,1.6C18.89,32.72,15.1,39.04,9.72,42.9z"
		/>
</g>
</svg>
