<?xml version="1.0" encoding="utf-8"?>
<!-- Generator: Adobe Illustrator 23.0.1, SVG Export Plug-In . SVG Version: 6.00 Build 0)  -->
<!DOCTYPE svg PUBLIC "-//W3C//DTD SVG 1.1//EN" "http://www.w3.org/Graphics/SVG/1.1/DTD/svg11.dtd" [
	<!ENTITY ns_extend "http://ns.adobe.com/Extensibility/1.0/">
	<!ENTITY ns_ai "http://ns.adobe.com/AdobeIllustrator/10.0/">
	<!ENTITY ns_graphs "http://ns.adobe.com/Graphs/1.0/">
	<!ENTITY ns_vars "http://ns.adobe.com/Variables/1.0/">
	<!ENTITY ns_imrep "http://ns.adobe.com/ImageReplacement/1.0/">
	<!ENTITY ns_sfw "http://ns.adobe.com/SaveForWeb/1.0/">
	<!ENTITY ns_custom "http://ns.adobe.com/GenericCustomNamespace/1.0/">
	<!ENTITY ns_adobe_xpath "http://ns.adobe.com/XPath/1.0/">
]>
<svg version="1.1" xmlns:x="&ns_extend;" xmlns:i="&ns_ai;" xmlns:graph="&ns_graphs;"
	 xmlns="http://www.w3.org/2000/svg" xmlns:xlink="http://www.w3.org/1999/xlink" x="0px" y="0px" viewBox="0 0 165.1 100.84"
	 enable-background="new 0 0 165.1 100.84" xml:space="preserve">
<metadata>
	<sfw  xmlns="&ns_sfw;">
		<slices></slices>
		<sliceSourceBounds  bottomLeftOrigin="true" height="77.23" width="143.61" x="-11" y="-69.68"></sliceSourceBounds>
	</sfw>
</metadata>
<g id="Layer_2">
	<ellipse fill="#FFFFFF" cx="66.22" cy="44.29" rx="60.41" ry="33.45"/>
	<ellipse fill="#FFFFFF" cx="123.97" cy="72.44" rx="9.58" ry="5.52"/>
	<ellipse fill="#FFFFFF" cx="141" cy="83.32" rx="8.42" ry="4.74"/>
</g>
<g id="Layer_1">
	<g>
		<g>
			<path fill="#FFFFFF" d="M84.8,66.52c-7.43,0-14.85-0.01-22.28,0.01c-0.53,0-0.64-0.11-0.64-0.64c0.02-14.91,0.02-29.82,0-44.73
				c0-0.53,0.11-0.64,0.64-0.64c14.91,0.02,29.82,0.02,44.73,0c0.53,0,0.64,0.11,0.64,0.64c-0.02,14.91-0.02,29.82,0,44.73
				c0,0.53-0.11,0.64-0.64,0.64C99.77,66.51,92.29,66.52,84.8,66.52z"/>
			<path fill="#6FB645" d="M74.5,37.43c-3.43,0-6.64-0.02-9.86,0.02c-0.74,0.01-0.99-0.18-0.94-0.94c0.07-1.1,0.03-2.21,0.01-3.31
				c-0.01-0.39,0.08-0.61,0.54-0.6c6.52,0.01,13.04,0.01,19.79,0.01c-4.2,5.75-8.28,11.36-12.47,17.1c0.86,0,1.56,0,2.26,0
				c2.3,0,4.59,0.01,6.89-0.01c0.52-0.01,0.74,0.09,0.72,0.67c-0.05,1.19-0.02,2.38-0.01,3.58c0,0.38-0.03,0.6-0.51,0.6
				c-6.23-0.02-12.46-0.02-18.69-0.03c-0.02,0-0.04-0.03-0.15-0.11C66.16,48.8,70.27,43.19,74.5,37.43z"/>
			<path fill="#6FB645" d="M93.15,38.97c-2.98,0-5.96-0.02-8.93,0.02c-0.64,0.01-0.78-0.15-0.7-0.79c0.38-3.15,2.55-5.24,5.73-5.27
				c5.93-0.06,11.85-0.01,17.78-0.03c0.51,0,0.65,0.11,0.58,0.66c-0.43,3.42-2.62,5.4-6.06,5.41
				C98.75,38.97,95.95,38.97,93.15,38.97z"/>
			<path fill="#6FB645" d="M88.64,46.68c-1.49,0-2.98-0.03-4.47,0.01c-0.63,0.02-0.72-0.18-0.65-0.76c0.37-3.15,2.45-5.17,5.73-5.28
				c2.92-0.1,5.84-0.02,8.76-0.04c0.51,0,0.59,0.19,0.54,0.64c-0.37,3.35-2.59,5.38-5.97,5.42C91.26,46.7,89.95,46.68,88.64,46.68z"
				/>
			<path fill="#6FB645" d="M85.7,54.42c-0.39,0-0.78,0-1.16,0c-1.19,0-1.19,0-0.96-1.19c0.58-3,2.62-4.74,5.66-4.82
				c0.86-0.02,1.73,0.04,2.59-0.02c0.69-0.05,0.71,0.29,0.63,0.8c-0.47,3.25-2.58,5.13-5.87,5.23C86.3,54.42,86,54.42,85.7,54.42
				C85.7,54.42,85.7,54.42,85.7,54.42z"/>
		</g>
	</g>
	<g>
		<g>
			<path fill="#FEFEFE" d="M20.28,43.42c0-6.54,0-13.07,0-19.61c0-0.14,0.03-0.18,0.18-0.18c13.07,0,26.15,0,39.22,0
				c0.14,0,0.18,0.03,0.18,0.18c0,13.07,0,26.15,0,39.22c0,0.14-0.03,0.18-0.18,0.18c-13.07,0-26.15,0-39.22,0
				c-0.14,0-0.18-0.03-0.18-0.18C20.28,56.5,20.28,49.96,20.28,43.42z"/>
			<path fill="#DB4537" d="M40.1,33.87c0.21-0.44,0.44-0.87,0.72-1.27c1.5-2.16,3.54-3.49,6.15-3.86c4.34-0.62,8.41,1.94,9.76,6.12
				c0.43,1.33,0.5,2.7,0.33,4.08c-0.31,2.58-1.36,4.87-2.78,7.01c-1.48,2.23-3.28,4.17-5.26,5.96c-2.6,2.35-5.41,4.4-8.43,6.18
				c-0.35,0.21-0.66,0.2-1.01,0c-2.65-1.56-5.14-3.35-7.47-5.34c-1.96-1.68-3.77-3.5-5.33-5.56c-1.3-1.72-2.38-3.56-3.07-5.62
				c-0.44-1.33-0.69-2.7-0.67-4.11c0.04-4.11,2.95-7.7,6.96-8.59c4.06-0.91,8.2,1.11,10,4.86C40.02,33.76,40.03,33.82,40.1,33.87z"
				/>
		</g>
	</g>
</g>
</svg>
